<?xml version="1.0" standalone="no"?>
<!DOCTYPE svg PUBLIC "-//W3C//DTD SVG 20010904//EN"
 "http://www.w3.org/TR/2001/REC-SVG-20010904/DTD/svg10.dtd">
<svg version="1.0" xmlns="http://www.w3.org/2000/svg"
 width="2084.000000pt" height="2084.000000pt" viewBox="0 0 2084.000000 2084.000000"
 preserveAspectRatio="xMidYMid meet">

<g transform="translate(0.000000,2084.000000) scale(0.100000,-0.100000)"
fill="#000000" stroke="none">
<path d="M11229 16174 c-168 -30 -374 -114 -518 -212 -106 -72 -4379 -3679
-4486 -3788 -191 -192 -297 -385 -362 -659 -16 -64 -18 -211 -20 -1642 -4
-1748 -8 -1633 64 -1783 28 -58 54 -93 117 -155 99 -97 160 -129 278 -146 202
-29 459 48 881 265 167 86 220 121 298 203 194 202 344 556 449 1058 11 55 23
111 26 123 4 19 27 34 107 72 161 75 462 188 474 177 2 -2 -22 -24 -53 -48
-119 -95 -217 -249 -249 -394 -12 -54 -16 -107 -13 -183 3 -95 7 -115 35 -175
99 -209 342 -304 712 -276 354 27 795 173 986 327 53 42 146 150 156 181 2 6
33 -16 69 -50 77 -72 207 -139 317 -163 45 -10 120 -16 204 -16 217 0 449 58
686 170 l102 48 47 -14 c26 -8 64 -14 84 -14 50 0 2749 701 2830 735 276 116
487 381 539 679 15 82 15 3096 0 3186 -14 93 -59 217 -110 305 -85 149 -445
558 -695 790 -538 499 -1130 881 -1799 1160 -211 88 -607 220 -719 240 -109
19 -332 18 -437 -1z m483 -588 c645 -200 1313 -562 1831 -991 l68 -56 -80 -75
c-128 -120 -203 -247 -241 -408 -17 -70 -20 -119 -20 -356 l0 -275 -31 49
c-91 145 -258 236 -432 236 -298 0 -556 -256 -561 -555 -1 -69 3 -88 27 -137
50 -102 141 -158 257 -158 81 0 170 45 217 111 l35 49 35 -72 c62 -124 191
-227 323 -257 25 -6 82 -11 127 -11 239 0 449 157 534 400 22 62 23 81 29 470
5 402 5 405 28 442 32 51 98 106 144 120 36 11 40 10 69 -18 44 -42 214 -242
282 -332 87 -117 87 -114 87 -559 l0 -382 -52 -15 c-29 -9 -285 -81 -568 -161
-283 -81 -529 -153 -547 -162 -53 -25 -120 -104 -137 -164 -33 -111 -11 -198
73 -280 61 -60 116 -83 196 -81 33 0 944 249 1021 279 12 4 14 -49 14 -314 l0
-319 -562 -149 c-310 -82 -578 -155 -596 -162 -50 -21 -113 -83 -138 -138 -29
-60 -32 -149 -8 -218 19 -55 82 -124 139 -152 89 -43 116 -38 651 104 270 72
496 131 503 131 8 0 11 -62 11 -220 0 -197 -2 -225 -21 -274 -25 -68 -91 -143
-156 -178 -33 -18 -413 -121 -1243 -337 -657 -170 -1268 -328 -1358 -351 -200
-50 -242 -74 -300 -171 -42 -69 -164 -133 -344 -180 -105 -27 -266 -36 -339
-19 -203 47 -308 216 -309 495 0 252 60 493 172 683 18 31 72 96 119 144 69
70 101 95 165 125 69 33 88 38 151 38 64 0 75 -3 98 -26 38 -37 45 -103 26
-244 -13 -102 -13 -122 0 -158 18 -50 54 -78 110 -84 130 -15 227 74 270 247
18 71 18 259 0 330 -32 128 -110 228 -214 276 -60 28 -67 29 -212 28 -136 0
-158 -3 -235 -28 -173 -57 -300 -138 -436 -278 -50 -51 -111 -122 -136 -158
-98 -139 -192 -347 -237 -525 -65 -258 -72 -630 -16 -777 8 -21 -29 -45 -210
-139 -298 -155 -597 -241 -850 -242 -181 -2 -271 46 -294 154 -41 190 139 377
430 449 142 35 155 39 183 61 47 37 70 95 70 181 1 72 -1 79 -27 105 -27 28
-29 28 -138 25 -130 -4 -201 13 -241 55 -40 44 -50 71 -50 139 1 160 130 291
340 345 133 34 229 19 260 -41 13 -25 13 -40 -4 -265 -4 -59 -2 -75 16 -103
28 -45 80 -66 149 -59 128 14 207 122 232 320 25 195 -34 361 -159 451 -75 55
-163 79 -290 78 -288 0 -563 -111 -752 -303 -108 -109 -177 -234 -201 -366
-16 -85 -7 -228 19 -286 15 -34 18 -49 9 -51 -7 -2 -61 -13 -120 -25 -60 -12
-163 -38 -229 -57 -66 -19 -122 -34 -123 -32 -2 2 11 112 29 246 l32 243 38
22 c58 32 81 84 81 179 0 74 -1 78 -33 111 -51 53 -98 62 -312 62 -506 -2
-974 -160 -1171 -397 -99 -119 -149 -262 -149 -422 0 -150 37 -266 100 -320
26 -21 42 -26 87 -26 63 0 107 18 152 62 69 68 82 139 42 222 -73 149 -15 278
163 362 115 55 424 124 555 124 35 0 41 -3 41 -20 0 -20 -53 -478 -66 -572
l-7 -47 -109 -68 c-240 -148 -467 -345 -595 -513 -72 -95 -153 -254 -178 -345
-9 -33 -20 -128 -24 -211 -5 -84 -14 -160 -19 -170 -45 -84 -169 -99 -234 -28
-45 51 -44 18 -40 1469 l5 1370 2331 675 c1282 371 2362 679 2399 684 230 33
448 -118 496 -342 7 -36 11 -259 11 -701 0 -613 1 -652 20 -725 28 -109 63
-169 150 -257 112 -113 232 -163 390 -162 162 1 295 58 416 178 62 61 90 98
117 155 69 141 67 116 67 915 0 702 -1 721 -21 765 -25 55 -80 114 -134 143
-57 31 -183 31 -241 0 -66 -35 -101 -70 -131 -131 l-28 -57 -3 -689 c-3 -673
-5 -716 -33 -716 -4 0 -10 300 -12 668 -4 714 -3 703 -57 856 -92 265 -304
488 -563 590 -142 56 -210 69 -377 70 -127 0 -171 -4 -240 -21 -60 -16 -3642
-1049 -4323 -1248 -44 -13 -47 -13 -38 3 13 25 -38 -19 2291 1947 1152 973
2119 1784 2148 1802 139 90 266 124 437 119 104 -3 136 -8 237 -40z m-4203
-6483 c-26 -120 -84 -312 -120 -400 -41 -97 -125 -221 -174 -255 -60 -41 -87
-44 -121 -15 -28 25 -29 28 -28 114 2 151 60 274 204 426 76 81 234 217 251
217 4 0 -2 -39 -12 -87z"/>
<path d="M12560 7324 c-167 -44 -288 -150 -378 -329 -102 -204 -156 -609 -103
-777 41 -130 118 -210 239 -249 93 -30 291 -30 407 0 91 24 208 78 248 115 33
30 35 73 7 104 -29 31 -49 28 -143 -22 -109 -59 -187 -79 -312 -78 -148 0
-221 32 -272 119 -58 99 -65 201 -29 415 36 205 75 313 153 420 122 168 385
215 600 107 89 -45 109 -45 143 -2 26 34 25 64 -3 91 -30 28 -140 77 -205 91
-75 16 -285 13 -352 -5z"/>
<path d="M4822 7312 c-13 -13 -37 -129 -100 -492 -46 -261 -92 -505 -102 -541
-40 -136 -115 -193 -251 -194 -69 0 -84 4 -148 38 -83 43 -99 45 -129 17 -56
-52 -38 -106 50 -149 162 -79 385 -56 505 53 40 36 91 121 112 186 6 19 49
253 96 520 47 267 88 497 91 512 11 56 -80 94 -124 50z"/>
<path d="M5686 7308 c-27 -24 -721 -1240 -732 -1282 -14 -57 80 -91 123 -43
11 12 67 106 124 209 l104 188 276 0 276 0 38 -187 c21 -104 44 -198 52 -210
19 -32 76 -31 108 2 14 13 25 30 25 37 0 7 -59 296 -132 643 -97 461 -137 634
-150 647 -25 25 -81 23 -112 -4z m86 -505 c32 -158 56 -288 54 -290 -2 -2
-102 -2 -223 -1 l-220 3 74 130 c40 72 113 201 161 287 48 87 89 158 92 158 3
0 31 -129 62 -287z"/>
<path d="M6456 7309 c-15 -12 -26 -30 -26 -44 0 -13 68 -184 152 -380 l152
-356 -42 -242 c-45 -258 -49 -296 -30 -315 20 -20 85 -15 108 8 11 11 20 23
20 28 0 4 20 120 44 259 l45 252 275 360 c217 282 276 366 276 389 0 62 -76
84 -122 35 -14 -16 -126 -162 -248 -326 -123 -164 -227 -294 -231 -290 -4 4
-65 143 -135 308 -70 165 -134 308 -142 318 -20 23 -63 22 -96 -4z"/>
<path d="M9751 7313 c-30 -26 -731 -1267 -731 -1296 0 -48 71 -76 113 -44 9 6
65 100 126 207 l109 195 275 3 c256 2 276 1 281 -15 3 -10 21 -96 41 -191 19
-95 40 -182 45 -193 8 -14 21 -19 48 -19 47 0 82 29 82 69 0 16 -58 307 -130
647 -141 675 -135 654 -205 654 -18 0 -42 -8 -54 -17z m83 -494 c31 -152 56
-284 56 -293 0 -14 -23 -16 -220 -16 -121 0 -220 2 -220 5 0 3 58 107 128 232
71 126 144 256 162 290 19 34 35 61 36 60 2 -1 28 -127 58 -278z"/>
<path d="M13861 7313 c-30 -26 -731 -1267 -731 -1296 0 -48 71 -76 113 -44 9
6 66 100 126 207 l110 195 275 3 c255 2 275 1 280 -15 5 -15 76 -361 76 -369
0 -14 38 -34 66 -34 43 0 74 30 74 70 0 17 -58 308 -130 648 -141 672 -135
652 -205 652 -18 0 -42 -8 -54 -17z m88 -511 l58 -292 -223 0 c-123 0 -224 2
-224 5 0 2 58 107 128 232 71 125 144 256 162 290 19 34 36 61 37 59 2 -2 30
-134 62 -294z"/>
<path d="M14730 7312 c-20 -16 -34 -81 -136 -662 -105 -593 -113 -646 -99
-667 12 -17 25 -23 53 -23 68 0 71 5 113 246 21 120 41 228 43 239 4 17 180
174 205 183 4 1 94 -141 200 -317 105 -176 198 -327 207 -335 37 -37 124 1
124 54 0 12 -90 173 -201 358 -110 185 -201 340 -202 343 -1 4 113 105 253
224 327 278 320 272 320 310 0 59 -59 84 -110 48 -14 -10 -189 -159 -388 -331
-200 -172 -365 -312 -366 -310 -2 2 22 142 52 312 l55 309 -23 19 c-28 23 -71
23 -100 0z"/>
<path d="M8251 7307 c-14 -6 -33 -26 -43 -42 -22 -39 -220 -1151 -216 -1214 2
-35 9 -48 31 -65 27 -20 41 -21 393 -24 l364 -3 25 25 c29 29 33 76 9 100 -13
14 -59 16 -345 16 -181 0 -329 3 -329 8 0 4 18 116 42 250 l42 242 317 0 c317
0 318 0 333 22 20 29 20 72 0 92 -13 14 -56 16 -320 16 -167 0 -304 4 -304 8
0 10 68 399 75 430 l5 22 334 0 c310 0 334 1 349 18 20 22 22 83 5 100 -17 17
-733 17 -767 -1z"/>
<path d="M10493 7312 c-23 -15 -34 -62 -20 -90 l12 -27 208 -3 208 -2 -5 -28
c-21 -104 -198 -1122 -198 -1144 -1 -40 19 -58 63 -58 64 0 71 14 109 226 18
104 65 371 104 594 l72 405 209 3 c172 2 212 5 226 18 23 21 31 57 19 88 l-10
26 -492 0 c-271 0 -498 -4 -505 -8z"/>
<path d="M15984 7301 c-17 -10 -36 -32 -42 -47 -14 -34 -212 -1154 -212 -1199
0 -42 24 -72 68 -85 22 -6 174 -10 378 -10 330 0 342 1 368 21 20 15 26 29 26
58 0 20 -5 42 -12 49 -9 9 -99 12 -345 12 -183 0 -333 3 -333 8 0 4 20 115 43
247 l43 240 314 3 c353 3 350 2 350 73 0 28 -5 41 -19 49 -12 6 -132 10 -321
10 l-302 0 6 28 c6 29 76 424 76 429 0 2 150 3 333 3 306 0 335 1 349 18 23
26 30 56 19 86 l-11 26 -372 0 c-347 0 -375 -1 -404 -19z"/>
<path d="M8503 5563 c-37 -5 -28 31 -103 -397 -41 -232 -49 -291 -38 -297 21
-14 180 -10 239 6 31 7 72 23 91 35 73 43 122 155 99 230 -12 41 -70 100 -99
100 -14 1 -14 2 3 11 99 54 141 117 132 195 -9 85 -61 116 -197 120 -52 1
-109 0 -127 -3z m223 -86 c43 -50 24 -131 -41 -176 -27 -18 -53 -25 -110 -29
-68 -4 -75 -3 -75 14 0 20 29 190 36 213 3 10 23 12 85 9 74 -3 83 -6 105 -31z
m-58 -294 c63 -47 62 -145 -2 -209 -39 -39 -97 -56 -174 -52 l-58 3 25 144 25
143 78 -4 c58 -4 86 -10 106 -25z"/>
<path d="M9680 5565 c0 -3 -27 -157 -60 -343 -33 -187 -60 -342 -60 -346 0 -4
17 -6 38 -4 l37 3 33 185 c17 102 45 258 61 348 l28 162 -38 0 c-22 0 -39 -2
-39 -5z"/>
<path d="M10805 5558 c-2 -7 -22 -119 -45 -248 -62 -358 -70 -374 -193 -377
-68 -1 -72 -3 -80 -28 -5 -14 -6 -29 -3 -33 4 -3 33 -8 66 -10 113 -8 199 58
234 178 14 49 96 493 96 520 0 14 -70 12 -75 -2z"/>
<path d="M10035 5368 c-16 -6 -48 -24 -69 -41 l-39 -31 6 37 c6 37 5 37 -28
37 -31 0 -35 -3 -39 -32 -3 -18 -22 -124 -41 -236 -19 -111 -35 -209 -35 -217
0 -10 11 -15 35 -15 40 0 34 -17 70 189 14 79 32 155 39 170 40 77 138 115
193 76 48 -34 46 -88 -12 -397 l-7 -38 39 0 39 0 28 164 c32 183 32 262 0 297
-39 44 -113 60 -179 37z"/>
<path d="M11695 5368 c-16 -6 -48 -24 -69 -41 l-39 -31 6 37 c6 37 5 37 -28
37 -31 0 -35 -3 -39 -32 -3 -18 -22 -124 -41 -236 -19 -111 -35 -209 -35 -217
0 -10 11 -15 35 -15 40 0 34 -17 70 189 14 79 32 155 39 170 40 77 138 115
193 76 48 -34 46 -88 -12 -397 l-7 -38 39 0 39 0 28 164 c32 183 32 262 0 297
-39 44 -113 60 -179 37z"/>
<path d="M12175 5356 c-171 -79 -236 -363 -105 -456 61 -44 157 -36 229 18
l33 25 -7 -44 c-14 -81 -59 -146 -118 -168 -41 -16 -122 -13 -164 4 -45 19
-40 20 -58 -15 l-15 -29 52 -16 c101 -30 218 -11 284 47 68 60 85 113 144 444
16 95 33 179 36 188 5 13 -1 16 -29 16 -36 0 -47 -12 -47 -53 -1 -20 -2 -20
-22 7 -44 59 -129 72 -213 32z m158 -56 c40 -31 48 -78 32 -170 -8 -44 -19
-90 -26 -102 -48 -95 -155 -128 -221 -69 -27 24 -32 36 -36 88 -10 147 75 273
184 273 27 0 51 -7 67 -20z"/>
<path d="M8900 5368 c0 -2 22 -111 49 -243 50 -239 50 -240 31 -270 -26 -42
-98 -109 -140 -131 -32 -17 -35 -22 -30 -51 l5 -32 42 19 c98 44 160 125 323
420 56 102 116 209 132 238 l30 53 -42 -3 -42 -3 -102 -200 -102 -200 -35 200
-34 200 -43 3 c-23 2 -42 2 -42 0z"/>
<path d="M10988 5352 c-3 -10 -18 -95 -34 -190 -26 -159 -27 -175 -14 -214 36
-101 158 -118 264 -35 l39 31 -6 -37 c-6 -37 -5 -37 28 -37 31 0 35 3 40 33 2
17 21 124 40 237 19 113 35 211 35 218 0 7 -14 12 -35 12 -40 0 -34 16 -70
-187 -33 -186 -40 -202 -105 -242 -37 -22 -89 -27 -119 -11 -10 5 -24 23 -31
40 -15 36 -11 85 24 273 l23 127 -37 0 c-28 0 -39 -5 -42 -18z"/>
</g>
</svg>
